<svg version="1.1" id="Camada_1" xmlns="http://www.w3.org/2000/svg" x="0" y="0" viewBox="0 0 1000 341.8" style="enable-background:new 0 0 1000 341.8" xml:space="preserve"><style>.st40,.st46,.st67{opacity:.879;fill-rule:evenodd;clip-rule:evenodd;fill:#201511;enable-background:new}.st46,.st67{opacity:.871;fill:#211612}.st67{opacity:.938;fill:#fbfbfb}</style><path d="M646.4 5.5c-1.2 72.1-1.4 144.3-.6 216.4.7 5.2 3.5 8.6 8.3 10 2.6-.2 5.2 0 7.8.6 1 .8 1.7 1.7 2.2 2.8.2 1.8-.6 3.1-2.2 3.9-10.4.1-20.7-.1-31.1-.6-8.4-.2-16.5.5-24.4 2.2-1.6.1-3.1-.3-4.4-1.1-.5-1.3-1.2-2.5-2.2-3.3V233c13.2.7 19.7-5.6 19.4-18.9.7-57 .7-113.9 0-170.9-.4-4.5-1.3-9-2.8-13.3-1-2.5-2.8-3.6-5.5-3.3l-6.7-1.1c-.3-2.2.1-4.2 1.1-6.1 13.9-4.7 26.8-11.2 38.8-19.4 2 1.3 2.7 3.1 2.3 5.5z" style="opacity:.988;fill-rule:evenodd;clip-rule:evenodd;fill:#fcfcfc;enable-background:new"/><path d="M716.3 5.5c-.9 8.1-1.4 16.3-1.7 24.4-.7 62.5-.7 125 0 187.5-.1 5.6 1.9 10.3 6.1 13.9 1 .5 2.2.7 3.3.6 2.2-.2 4.5 0 6.7.6 1.4.5 2.1 1.4 2.2 2.8-.7 3.8-3.2 5.3-7.2 4.4-15.3-1.2-30.7-1.4-46.1-.6-1.7.2-3.2.8-4.4 1.7l-4.4-1.1-1.1-2.2c-.3-1.6.1-3.1 1.1-4.4 4.4-.5 8.7-1.6 12.8-3.3 2.1-3.8 3.6-7.9 4.4-12.2.7-59.2.7-118.4 0-177.5-.4-3.4-1.4-6.8-2.8-10-1-2.5-2.8-3.6-5.5-3.3-1.8-.6-3.7-1-5.5-1.1-.4-2.8.3-5.2 2.2-7.2C689.2 14.3 701 8.4 711.9.7c3.3-.4 4.7 1.2 4.4 4.8z" style="opacity:.982;fill-rule:evenodd;clip-rule:evenodd;fill:#fefefe;enable-background:new"/><path d="M654.1 231.9c-4.8-1.4-7.6-4.8-8.3-10-.8-72.1-.6-144.3.6-216.4 1.7-.9 3.6-1.3 5.5-1.1-.2 73.6 0 147.2.6 220.8l1.6 6.7z" style="opacity:.895;fill-rule:evenodd;clip-rule:evenodd;fill:#1e130e;enable-background:new"/><path d="M724 231.9c-1.1.2-2.3 0-3.3-.6-4.2-3.6-6.2-8.2-6.1-13.9-.7-62.5-.7-125 0-187.5.2-8.2.8-16.4 1.7-24.4 1.7-.9 3.6-1.3 5.5-1.1-1.2 72.5-1.4 145-.6 217.5.3 3.6 1.2 6.9 2.8 10z" style="opacity:.936;fill-rule:evenodd;clip-rule:evenodd;fill:#281d1a;enable-background:new"/><path d="M129.3 28.9c.8 2 2.3 3.1 4.4 3.3 21.9 21.2 34.7 47.1 38.3 77.7 2.8 31.4-3.1 61-17.8 88.8-17.1 29.5-42.8 43.2-77.1 41.1-23.7-1.5-47.4-1.5-71 0-5.8.6-7.5-1.7-5-6.7 14.9.1 22.1-7.3 21.6-22.2.1-50.6-.1-101.3-.6-152L21 34.5c-.4-2.2-1.3-4-2.8-5.5-3.5-3.6-7.6-4.8-12.2-3.3-5-.4-6.7-3-5-7.8 1.3-.9 2.6-1.5 4-1.8 27.7-2.4 55.5-3.1 83.2-2.2 9.4 1.3 18.7 3.6 27.7 6.7 5 2.1 9.4 4.9 13.4 8.3zm-31.1 2.2c17 11.8 28.7 27.7 35 47.7 11.8 35.9 10.7 71.4-3.3 106.5-6.2 15.3-16 27.7-29.4 37.2-11.1 7.3-22.9 9.3-35.5 6.1-5.1-7.2-7.5-15.3-7.2-24.4-1.1-55.5-.7-111 1.1-166.4 1.4-6.2 5.3-9.7 11.7-10.5 9.3-.3 18.5 1 27.6 3.8z" style="opacity:.983;fill-rule:evenodd;clip-rule:evenodd;fill:#fcfcfc;enable-background:new"/><path d="M376.7 16.6c15 51.6 30.6 103 46.6 154.2 1.4-2.7 2.2-5.8 2.2-8.9 13.2-48.3 27.1-96.4 41.6-144.3 3.1-3.9 7.2-5.3 12.2-4.4 10.5 1.4 21.1 1.4 31.6 0l6.7.6c1 .8 1.7 1.7 2.2 2.8-1 3.3-3.2 5.3-6.7 6.1L501 23.9c-1.5 1.3-2.5 3-2.8 5 .7 63.3 1.8 126.5 3.3 189.8.9 3.4 2 6.7 3.3 10 1.7 1.8 3.7 3 6.1 3.3 2.6-.2 5.2 0 7.8.6 1.4.5 2.1 1.4 2.2 2.8-1.1 3.8-3.6 5.3-7.8 4.4-9.2-.6-18.5-1-27.7-1.1-10.2-.2-20.2.5-30 2.2-4.3-.4-6.3-2.6-6.1-6.7 5.4-1.6 10.8-3.2 16.1-5 2.4-2.7 4.1-5.9 5-9.4 0-49.2-.1-98.4-.6-147.6.2-8.1 0-16.3-.6-24.4-17.3 58.2-34 116.7-49.9 175.3-.9 4.1-2.6 7.8-5 11.1-4.1.5-6.5-1.4-7.2-5.5-16.1-53.3-32.2-106.5-48.3-159.8.1-5.7-1.4-10.8-4.4-15.5-1.8 8-2.7 16.2-2.8 24.4-.7 44.8-.7 89.5 0 134.3.1 5.4 1.2 10.6 3.3 15.5 1.8 2.5 4.2 4 7.2 4.4 4.1-.2 8.2 0 12.2.6.8.7 1.2 1.7 1.1 2.8 0 1.7-.8 3-2.2 3.9-8.9.1-17.8-.1-26.6-.6-8-.1-15.8.6-23.3 2.2-6.7-.3-8.1-3.1-4.4-8.3 9.4.6 15.5-3.7 18.3-12.8 3.9-40.2 6.1-80.6 6.7-121 .6-23.7.7-47.3.6-71 0-1.7-.8-3-2.2-3.9-4.4-.6-8.9-.7-13.3-.6-6.5-1.1-8-4.2-4.4-9.4 14.2.5 28.5.3 42.7-.6l7.2.6c1 .8 1.7 1.7 2.2 2.7z" style="opacity:.975;fill-rule:evenodd;clip-rule:evenodd;fill:#fdfdfd;enable-background:new"/><path d="M560.9 17.8c.7 3 1.5 3 2.2 0 6.7-5.8 13.4-5.8 20 0 6.5 13.3 2.8 22.7-11.1 28.3-3.7 2.8-6.3 6.3-7.8 10.5-1.1-.1-2 .3-2.8 1.1-1.8-3.7-4.3-7.1-7.2-10-.5-1.6-1.6-2.3-3.3-2.2-13.2-5.9-16.6-15.4-10-28.3 7-5.3 13.7-5.1 20 .6z" style="opacity:.966;fill-rule:evenodd;clip-rule:evenodd;fill:#fdfdfd;enable-background:new"/><path d="M376.7 16.6c3.5.3 5.9 2.2 7.2 5.5 13.5 46.7 27.4 93.3 41.6 139.8 0 3.1-.8 6.1-2.2 8.9-16-51.2-31.6-102.6-46.6-154.2z" style="opacity:.893;fill-rule:evenodd;clip-rule:evenodd;fill:#1f1410;enable-background:new"/><path d="M519.9 16.6c3.8-.2 6.1 1.7 6.7 5.5-1.4 1.8-3.3 3.1-5.5 3.9-5 1-10 1.9-15 2.8-1.3 7-2.3 14-2.8 21.1 2.3 57.7 3.9 115.4 5 173.1.6 3 1.5 6 2.8 8.9-2.4-.4-4.5-1.5-6.1-3.3-1.3-3.3-2.4-6.6-3.3-10-1.6-63.2-2.7-126.5-3.3-189.8.3-2 1.2-3.7 2.8-5l12.2-1.1c3.3-.7 5.5-2.8 6.5-6.1z" style="opacity:.912;fill-rule:evenodd;clip-rule:evenodd;fill:#201511;enable-background:new"/><path d="M560.9 17.8h2.2c-.7 2.9-1.4 2.9-2.2 0z" style="fill-rule:evenodd;clip-rule:evenodd;fill:#69605d"/><path d="M583.1 17.8c7.2 2 10.5 6.8 10 14.4 0 5.1-1.9 9.3-5.5 12.8-7.8 3.1-13.7 8.3-17.8 15.5-2.8.3-4.6-1-5.5-3.9 1.5-4.3 4.1-7.8 7.8-10.5 13.8-5.6 17.5-15.1 11-28.3z" style="opacity:.877;fill-rule:evenodd;clip-rule:evenodd;fill:#201410;enable-background:new"/><path d="M98.2 31.1c-9-2.8-18.3-4.1-27.7-3.9-6.4.9-10.2 4.4-11.7 10.5-1.8 55.5-2.2 111-1.1 166.4-.3 9.1 2.1 17.2 7.2 24.4-8.1-3.5-12.3-9.8-12.8-18.9-.7-58.4-.7-116.9 0-175.3 1.1-5.2 4.3-8.7 9.4-10.5 13.3-2 25.5.4 36.7 7.3z" style="opacity:.96;fill-rule:evenodd;clip-rule:evenodd;fill:#1f130f;enable-background:new"/><path d="M329 23.3c4.4-.2 8.9 0 13.3.6 1.5.9 2.2 2.2 2.2 3.9-4-.8-8.1-1.3-12.2-1.7-1.6-.4-2.7-1.4-3.3-2.8z" style="opacity:.824;fill-rule:evenodd;clip-rule:evenodd;fill:#211613;enable-background:new"/><path d="M54.9 39.9c4.2-1.3 7.8-.3 11 3-2.7.2-5.4 0-8-.5-1.2-.7-2.2-1.5-3-2.5z" style="opacity:.83;fill-rule:evenodd;clip-rule:evenodd;fill:#2f2421;enable-background:new"/><path d="M610.9 26.6c2.7-.3 4.5.9 5.5 3.3-3.1.7-4.9-.4-5.5-3.3z" style="opacity:.734;fill-rule:evenodd;clip-rule:evenodd;fill:#281d1a;enable-background:new"/><path d="M679.7 26.6c2.7-.3 4.5.9 5.5 3.3-2.8.3-4.6-.8-5.5-3.3z" style="opacity:.736;fill-rule:evenodd;clip-rule:evenodd;fill:#201510;enable-background:new"/><path d="M129.3 28.9c2.1.3 3.6 1.4 4.4 3.3-2.1-.3-3.6-1.4-4.4-3.3z" style="opacity:6.300000e-02;fill-rule:evenodd;clip-rule:evenodd;fill:#362b28;enable-background:new"/><path d="M133.7 32.2c17.7 12.5 30.1 29.1 37.2 49.9 15.3 47.5 9.1 91.9-18.9 133.2-17.9 20.7-40.7 30.3-68.2 28.9-25.1-1.2-50.3-1.4-75.5-.6-1.6-.8-2.4-2.1-2.2-3.9 23.7-1.5 47.4-1.5 71 0 34.4 2.2 60.1-11.5 77.1-41.1 14.7-27.8 20.6-57.4 17.8-88.8-3.6-30.5-16.4-56.4-38.3-77.6z" style="opacity:.896;fill-rule:evenodd;clip-rule:evenodd;fill:#211613;enable-background:new"/><path d="M550.9 45.5c1.7-.1 2.8.7 3.3 2.2-1.6.1-2.7-.6-3.3-2.2z" style="opacity:.624;fill-rule:evenodd;clip-rule:evenodd;fill:#5e5552;enable-background:new"/><path d="M469.9 72.1c-15.6 55.3-31.7 110.4-48.3 165.3-3.8 2-6.2.8-7.2-3.3 2.4-3.3 4.1-7 5-11.1 16-58.6 32.6-117.1 49.9-175.3.6 8.1.8 16.3.6 24.4z" style="opacity:.924;fill-rule:evenodd;clip-rule:evenodd;fill:#221713;enable-background:new"/><path d="M359 68.8c-1.7 52.5-1.5 105.1.6 157.6.4 2.2 1.3 4 2.8 5.5-3-.5-5.4-2-7.2-4.4-2.2-4.9-3.3-10.1-3.3-15.5-.7-44.8-.7-89.5 0-134.3 0-8.2 1-16.4 2.8-24.4 2.9 4.7 4.4 9.8 4.3 15.5z" style="opacity:.913;fill-rule:evenodd;clip-rule:evenodd;fill:#221713;enable-background:new"/><path d="M286.8 82.1c17.5 19.1 22.3 40.8 14.4 64.9-24.8.9-49.6.7-74.3-.6-2.1-.1-3.7.6-5 2.2-2.3 25.3 5.3 46.9 22.7 64.9 1.7 1.2 3.6 2.1 5.5 2.8 20.7 9 37.4 4 49.9-15 3.8-.7 5.3 1 4.4 5-16.9 32-42.5 41.9-76.6 30-13.9-7.4-23.7-18.5-29.4-33.3-9.2-27.9-9.6-56.1-1.1-84.3 6.5-17.2 17.4-30.7 32.7-40.5 15.6-7.2 31.5-7.9 47.7-2.2 3.4 1.7 6.4 3.8 9.1 6.1zm-14.4 3.3c9.6 9.1 12.8 20.2 9.4 33.3-2.4 8.3-7.8 13.7-16.1 16.1-13.3.6-26.6.7-39.9.6 1.2-17.8 8.2-32.8 21.1-44.9 7.7-5.8 16.2-7.4 25.5-5.1z" style="opacity:.975;fill-rule:evenodd;clip-rule:evenodd;fill:#fcfcfc;enable-background:new"/><path d="M973.7 78.8v33.3c-1.1.5-2 1.2-2.8 2.2-1-.6-2-1.4-2.8-2.2-1.7-11.6-7.2-20.4-16.6-26.6-13.9-8.4-24.9-5.4-32.7 8.9-2.8 11 .7 19.2 10.5 24.4.4 1.7 1.5 2.5 3.3 2.2 13.8 7.5 27.5 15.2 41.1 23.3 23.5 22.1 26.3 46.9 8.3 74.3-16.7 19.9-38 27.5-63.8 22.7-5.3-1.3-10.5-3-15.5-5-14-7.2-22.3-18.6-25-34.4-2-12.5-.1-24.3 5.5-35.5 5.8-8.5 13.7-11.7 23.9-9.4 3 1.1 5.6 2.8 7.8 5 7.8 7.2 11 16.1 9.4 26.6-1.1.6-2 1.4-2.8 2.2-2.5.4-4.5-.4-6.1-2.2l-1.7-10c-1.8-3-4.6-4.5-8.3-4.4-6.1.5-9.8 3.9-11.1 10-2 15.5 2.6 28.6 13.9 39.4 1.7 1.2 3.6 2.1 5.5 2.8 15.7 8 30.9 7.1 45.5-2.8 13.1-17.2 11.3-32.8-5.5-46.6-4.8-2.8-9.6-5.5-14.4-8.3-2-2.3-4.6-3.8-7.8-4.4-37.8-15.5-46.5-41-26.1-76.6 11.9-13.8 26.9-18.8 44.9-15 6.7 1 13.3 2.1 20 3.3 1.4.8 2.5 1.7 3.4 2.8z" style="opacity:.971;fill-rule:evenodd;clip-rule:evenodd;fill:#fcfbfb;enable-background:new"/><path d="M576.5 77.7c-.2 47.3 0 94.7.6 142 .1 6.6 3.3 10.7 9.4 12.2 4.1-.6 7.4.5 10 3.3-.9 3.8-3.3 5.2-7.2 4.4-15.7-1.2-31.4-1.4-47.2-.6-1.7.2-3.2.8-4.4 1.7-4.6 0-6.7-2.2-6.1-6.7 4.6-1.7 9.2-3.1 13.9-4.4 1.6-2 2.9-4.3 3.9-6.7.7-34.4.7-68.8 0-103.2-.4-1.5-1-3-1.7-4.4-1.3-3.4-3.9-4.9-7.8-4.4-4.2.6-6.4-1.2-6.7-5.5.8-2.5 2.3-4.5 4.4-6.1 13-5.2 23.7-13.4 32.2-24.4 3.7-2.6 5.9-1.7 6.7 2.8z" style="opacity:.967;fill-rule:evenodd;clip-rule:evenodd;fill:#fafafa;enable-background:new"/><path d="M586.5 231.9c-6.2-1.6-9.3-5.6-9.4-12.2-.6-47.3-.7-94.7-.6-142 1.9-.5 3.6-.5 5 0l1.1 137.6c.1 5.8 1.4 11.4 3.9 16.6z" style="opacity:.966;fill-rule:evenodd;clip-rule:evenodd;fill:#1e120e;enable-background:new"/><path d="M861.6 82.1c-.2 45.9 0 91.7.6 137.6.8 4.7 3.2 6.2 7.2 4.4 2.1-.6 4.1-1.3 6.1-2.2 2.2.6 3.2 2.1 2.8 4.4-1.3 2.2-3.2 3.9-5.5 5-10.8 3.8-21.5 7.7-32.2 11.7-1.8.2-3.5-.1-5-1.1-.6-5.2-.7-10.4-.6-15.5.4-2.9-.2-5.4-1.7-7.8-8.4 7.7-17.5 14.5-27.2 20.5-7.6 2.8-15.4 3.4-23.3 1.7-13.8-6.1-21.8-16.9-23.9-32.2-1.4-36.6-2.2-73.2-2.2-109.9-.4-3-1-5.9-1.7-8.9-3-3-6.7-4.5-11.1-4.4-5-.4-6.5-2.8-4.4-7.2 12.2.4 24.4.3 36.6-.6 4.1-.9 6.7.6 7.8 4.4-1.3 37.3-1.5 74.7-.6 112.1.8 6.2 2.7 12.2 5.5 17.8 2.5 3.2 5.7 5.4 9.4 6.7 12.6 4.5 23.5 1.9 32.7-7.8 1.4-2.4 2.5-5.1 3.3-7.8 1.8-35.1 2.2-70.3 1.1-105.4-.2-3-1.1-5.6-2.8-7.8-2.4-3.2-5.7-4.6-10-4.4-5.2-.5-6.7-3.1-4.4-7.8 1.2-.6 2.5-1 3.9-1.1 11.9 2.1 24 2.6 36.1 1.7 2.4.5 3.5 1.8 3.5 3.9z" style="opacity:.984;fill-rule:evenodd;clip-rule:evenodd;fill:#fdfdfd;enable-background:new"/><path d="M973.7 78.8c5 1 7.3 4.2 6.7 9.4-.8 9.4-1.3 18.9-1.7 28.3-4.1 1.7-5.7.2-5-4.4V78.8z" style="opacity:.893;fill-rule:evenodd;clip-rule:evenodd;fill:#1d120c;enable-background:new"/><path d="M272.4 85.4c-9.3-2.4-17.8-.7-25.5 5-12.8 12.2-19.9 27.2-21.1 44.9-6.3-.4-8.3-3.7-6.1-10 2.9-16.3 10.5-29.8 22.7-40.5 10.4-6.7 20.4-6.5 30 .6z" style="opacity:.914;fill-rule:evenodd;clip-rule:evenodd;fill:#221714;enable-background:new"/><path d="M951.5 85.4c-15.9-2.4-25.2 4.5-27.7 20.5.8 4.8 2.7 9 5.5 12.8-9.8-5.2-13.3-13.4-10.5-24.4 7.9-14.3 18.8-17.2 32.7-8.9z" style="opacity:.912;fill-rule:evenodd;clip-rule:evenodd;fill:#211612;enable-background:new"/><path d="M784 82.1c1.8-.2 3.5.1 5 1.1.9 32.9.7 65.9-.6 98.8.3 10.2 2 20.3 5 30 1.5 2.4 3.1 4.6 5 6.7-3.8-1.2-6.9-3.5-9.4-6.7-2.9-5.6-4.7-11.6-5.5-17.8-1-37.6-.8-74.9.5-112.1z" style="opacity:.899;fill-rule:evenodd;clip-rule:evenodd;fill:#1e130e;enable-background:new"/><path d="M861.6 82.1c3-.6 5.1.5 6.1 3.3.2 46.3.7 92.5 1.7 138.7-4 1.8-6.4.3-7.2-4.4-.6-45.9-.7-91.7-.6-137.6z" style="opacity:.882;fill-rule:evenodd;clip-rule:evenodd;fill:#1f130f;enable-background:new"/><path d="M286.8 82.1c4.3 1.5 7.8 4.1 10.5 7.8 13.4 18.4 17.3 38.6 11.7 60.5-26.7.2-53.3.8-79.9 1.7-3.2 24.7 3.8 46.2 21.1 64.4-2-.6-3.8-1.6-5.5-2.8-17.5-18-25.1-39.6-22.7-64.9 1.2-1.6 2.9-2.3 5-2.2 24.8 1.3 49.6 1.4 74.3.6 7.9-24.3 3.1-46-14.5-65.1z" style="opacity:.899;fill-rule:evenodd;clip-rule:evenodd;fill:#211612;enable-background:new"/><path d="M744 85.4c4.4 0 8.1 1.5 11.1 4.4-4.3-.1-8-1.5-11.1-4.4z" style="opacity:.728;fill-rule:evenodd;clip-rule:evenodd;fill:#211612;enable-background:new"/><path d="M822.8 85.4c4.3-.2 7.6 1.3 10 4.4-2.6-.6-5.1-1.2-7.8-1.7-1-.7-1.7-1.6-2.2-2.7z" style="opacity:.692;fill-rule:evenodd;clip-rule:evenodd;fill:#231714;enable-background:new"/><path d="M539.8 111c3.9-.5 6.5 1 7.8 4.4-2.3-.2-4.5-.8-6.7-1.7-.8-.7-1.1-1.6-1.1-2.7z" style="opacity:.667;fill-rule:evenodd;clip-rule:evenodd;fill:#2b201c;enable-background:new"/><path d="M929.3 118.7c1.3.5 2.5 1.2 3.3 2.2-1.8.3-2.9-.4-3.3-2.2z" style="fill-rule:evenodd;clip-rule:evenodd;fill:#756d6a"/><path d="M973.7 144.3c25.7 17 32.6 39.9 20.5 68.8-16.1 27.6-40 38.1-71.6 31.6-4.9-1.3-9.7-2.7-14.4-4.4-2.3-.8-4.2-2.1-5.5-3.9 5.1 2 10.3 3.7 15.5 5 25.8 4.7 47.1-2.9 63.8-22.7 18-27.5 15.3-52.3-8.3-74.4z" style="opacity:.895;fill-rule:evenodd;clip-rule:evenodd;fill:#201511;enable-background:new"/><path d="M914.9 162c8.5 4.4 13.9 11.5 16.1 21.1.8 3.4.6 6.7-.6 10-4.2 3.5-7.2 2.8-8.9-2.2.7-.9 1.7-1.6 2.8-2.2 1.6-10.6-1.5-19.5-9.4-26.7z" style="opacity:.843;fill-rule:evenodd;clip-rule:evenodd;fill:#211612;enable-background:new"/><path d="M931.6 164.2c3.1.6 5.7 2.1 7.8 4.4-3.2-.6-5.8-2.1-7.8-4.4z" style="opacity:.282;fill-rule:evenodd;clip-rule:evenodd;fill:#312623;enable-background:new"/><path d="M913.8 178.7c-4.4-.5-7.9 1-10.5 4.4-5 11.9-3.9 23.4 3.3 34.4 2.2 3.1 4.6 6.1 7.2 8.9-2-.6-3.8-1.6-5.5-2.8-11.2-10.8-15.9-23.9-13.9-39.4 1.3-6.1 5-9.4 11.1-10 3.7 0 6.5 1.4 8.3 4.5z" style="opacity:.894;fill-rule:evenodd;clip-rule:evenodd;fill:#221714;enable-background:new"/><path class="st40" d="M228 236.4c34.1 12 59.6 2 76.6-30 3.7-3.3 5.6-2.4 5.5 2.8-8.1 20.9-23.2 33.1-45.5 36.6-13.6 1.8-25.8-1.3-36.6-9.4z"/><path d="M835 226.4c-7.5 8-16.4 14.1-26.6 18.3-9.3 2.8-17.8 1.5-25.5-3.9 7.9 1.7 15.7 1.1 23.3-1.7 9.7-6 18.8-12.9 27.2-20.5 1.4 2.3 2 4.9 1.6 7.8z" style="opacity:.894;fill-rule:evenodd;clip-rule:evenodd;fill:#211612;enable-background:new"/><path d="M878.3 226.4c7.1.4 8.2 3.1 3.3 8.3-11.2 3.8-22.3 7.9-33.3 12.2-4.1 1.5-6.7.2-7.8-3.9 10.7-4 21.4-7.9 32.2-11.7 2.4-1 4.3-2.7 5.6-4.9z" style="opacity:.878;fill-rule:evenodd;clip-rule:evenodd;fill:#211613;enable-background:new"/><path d="M375.6 235.2c5-.2 7 2 6.1 6.7-2.7 1.5-5.7 2.3-8.9 2.2-14-2.6-28.1-2.6-42.2 0l-6.1-.6c-.8-.7-1.2-1.7-1.1-2.8 7.5-1.6 15.3-2.4 23.3-2.2 8.9.5 17.8.7 26.6.6 1.6-.9 2.3-2.2 2.3-3.9z" style="opacity:.855;fill-rule:evenodd;clip-rule:evenodd;fill:#221713;enable-background:new"/><path d="M521 235.2c6.4.1 7.9 2.7 4.4 7.8-2 .7-4 1-6.1 1.1-18.6-2.9-37.5-2.9-56 0-3.5.5-6-.6-7.8-3.3 9.7-1.7 19.7-2.5 30-2.2 9.3.1 18.5.5 27.7 1.1 4.1.8 6.7-.6 7.8-4.5z" style="opacity:.861;fill-rule:evenodd;clip-rule:evenodd;fill:#221713;enable-background:new"/><path d="M596.4 235.2c1 .7 2.1 1 3.3 1.1 1 .9 1.7 2 2.2 3.3-.7 3.6-2.9 5.1-6.7 4.4-17.2-2.8-34.4-2.8-51.6 0l-5-.6c-.8-.7-1.2-1.7-1.1-2.8 1.2-.9 2.7-1.4 4.4-1.7 15.7-.8 31.5-.7 47.2.6 4 1 6.5-.5 7.3-4.3z" style="opacity:.873;fill-rule:evenodd;clip-rule:evenodd;fill:#221713;enable-background:new"/><path class="st46" d="M664.1 235.2c2 .4 3.8 1.2 5.5 2.2l1.1 2.2c0 1.7-.8 3-2.2 3.9-10.8.2-21.5-.3-32.2-1.7-9.2 1.1-18.5 1.7-27.7 1.7-1-.8-1.7-1.7-2.2-2.8 7.9-1.7 16-2.5 24.4-2.2 10.3.5 20.7.6 31.1.6 1.6-.8 2.4-2.1 2.2-3.9z"/><path d="M732.9 235.2c6.2.7 7.6 3.4 4.4 8.3-10.2-.1-20.4-.6-30.5-1.7-9.8 1-19.6 1.5-29.4 1.7-1-.8-1.7-1.7-2.2-2.8 1.2-.9 2.7-1.4 4.4-1.7 15.3-.8 30.7-.6 46.1.6 4.1.9 6.5-.6 7.2-4.4z" style="opacity:.869;fill-rule:evenodd;clip-rule:evenodd;fill:#211613;enable-background:new"/><path d="M767.3 264.1c-4.7 17.1-9.6 34.1-15 51-1.3 4.3-1.8 8.8-1.7 13.3 4.4-.7 7-3.3 7.8-7.8h3.3c0 4-1.5 7.4-4.4 10-4.1 2.8-8.6 5-13.3 6.7-5.4-.1-8-2.8-7.8-8.3 5.6-20.4 10.8-40.9 15.5-61.6-1.9.2-3.8-.2-5.5-1.1-1.4-1.3-1.4-2.6 0-3.9 6.7-.6 13.4-1.5 20-2.8l2.2 1.1c-.6 1-1 2.2-1.1 3.4z" style="opacity:.94;fill-rule:evenodd;clip-rule:evenodd;fill:#fcfcfc;enable-background:new"/><path d="M492.1 265.2c1.7 6.8-.9 10.5-7.8 11.1-6.3-1.8-8.1-5.9-5.5-12.2 4.9-4.4 9.3-4 13.3 1.1z" style="opacity:.902;fill-rule:evenodd;clip-rule:evenodd;fill:#fcfcfc;enable-background:new"/><path d="M104.9 266.3c-6-1.6-8.6.7-7.8 6.7 1.7 13.4 4 26.7 6.7 39.9 2.3-2.1 3.8-4.7 4.4-7.8 6.3-9.5 12.4-19.1 18.3-28.9 1.2-2.8 1.8-5.8 1.7-8.9-3.4.3-5.3-1.1-5.5-4.4h21.1v3.3c-5.1 1.4-8.5 4.8-10 10-.9.4-1.3 1.1-1.1 2.2-.9.4-1.3 1.1-1.1 2.2-1.6.5-2.3 1.6-2.2 3.3-.9.4-1.3 1.1-1.1 2.2-.9.4-1.3 1.1-1.1 2.2-.7 0-1.1.4-1.1 1.1-.9.4-1.3 1.1-1.1 2.2-.7 0-1.1.4-1.1 1.1-1.6.5-2.3 1.6-2.2 3.3-.9.4-1.3 1.1-1.1 2.2-1.6.5-2.3 1.6-2.2 3.3-.9.4-1.3 1.1-1.1 2.2-.7 0-1.1.4-1.1 1.1-.9.4-1.3 1.1-1.1 2.2-1.6.5-2.3 1.6-2.2 3.3-1.6 1-2.7 2.5-3.3 4.4-5.3 6.4-9.8 13.5-13.3 21.1-2.5 1.8-4.5 1.5-6.1-1.1-3-21.5-6.3-43-10-64.4-1.6-2.3-3.9-3.8-6.7-4.4-.5-1-.7-2.2-.6-3.3 8.4.3 16.7-.1 25-1.1 2.9.4 5.7 1.1 8.3 2.2-.6 1.2-1 1.9-1.3 2.6z" style="opacity:.933;fill-rule:evenodd;clip-rule:evenodd;fill:#fcfcfc;enable-background:new"/><path d="M767.3 264.1h6.7c-4.7 19-9.8 37.9-15.5 56.6-.8 4.5-3.4 7.1-7.8 7.8-.2-4.5.4-9 1.7-13.3 5.3-17 10.3-34 14.9-51.1z" style="opacity:.926;fill-rule:evenodd;clip-rule:evenodd;fill:#221713;enable-background:new"/><path d="M798.4 264.1c2.2-.2 4.5 0 6.7.6-2.5 8.3-4.7 16.6-6.7 25-3.3 4.6-6.8 9-10.5 13.3 2.3-13.3 5.8-26.3 10.5-38.9z" style="opacity:.92;fill-rule:evenodd;clip-rule:evenodd;fill:#231814;enable-background:new"/><path d="M492.1 265.2c6.2 1.2 8.2 4.9 6.1 11.1-4.8 5.9-9.4 5.9-13.9 0 6.9-.6 9.5-4.3 7.8-11.1z" style="opacity:.843;fill-rule:evenodd;clip-rule:evenodd;fill:#201511;enable-background:new"/><path d="M104.9 266.3h6.7c.2 1.5-.2 2.8-1.1 3.9-5.8-.5-8 2.1-6.7 7.8.7 9.3 2.2 18.4 4.4 27.2-.6 3.1-2.1 5.7-4.4 7.8-2.7-13.2-4.9-26.6-6.7-39.9-.8-6.1 1.8-8.3 7.8-6.8z" style="opacity:.899;fill-rule:evenodd;clip-rule:evenodd;fill:#201511;enable-background:new"/><path d="M143.7 266.3h5.5c-16 23.7-31.3 47.7-46.1 72.1-4.3 4.9-6.7 4.2-7.2-2.2 3.5-7.6 8-14.6 13.3-21.1.3 1.4.9 1.4 1.7 0 .9-1.3 1.4-2.9 1.7-4.4 1.6-.5 2.3-1.6 2.2-3.3.9-.4 1.3-1.1 1.1-2.2.7 0 1.1-.4 1.1-1.1.9-.4 1.3-1.1 1.1-2.2 1.6-.5 2.3-1.6 2.2-3.3.9-.4 1.3-1.1 1.1-2.2 1.6-.5 2.3-1.6 2.2-3.3.7 0 1.1-.4 1.1-1.1.9-.4 1.3-1.1 1.1-2.2.7 0 1.1-.4 1.1-1.1.9-.4 1.3-1.1 1.1-2.2.9-.4 1.3-1.1 1.1-2.2 1.6-.5 2.3-1.6 2.2-3.3.9-.4 1.3-1.1 1.1-2.2.9-.4 1.3-1.1 1.1-2.2 1.7-5.5 5.1-8.8 10.2-10.3z" style="opacity:.841;fill-rule:evenodd;clip-rule:evenodd;fill:#1f130f;enable-background:new"/><path d="M242.5 276.3c-.7 0-1.1.4-1.1 1.1v1.1c-.7 0-1.1.4-1.1 1.1-1.2 2.4-1.9 5.1-2.2 7.8h7.8c1.2.9 1.2 2.1 0 3.3-3 .8-5.9 1.5-8.9 2.2-4 11.6-7 23.4-8.9 35.5 4.3-1 7.3-3.6 8.9-7.8 1.2.1 1.9.9 2.2 2.2-.6 3.1-2.1 5.7-4.4 7.8-2.3.6-4.1 1.9-5.5 3.9-2.8 1.2-5.8 1.8-8.9 1.7-4.3-.4-6.5-2.8-6.7-7.2 2.9-12.3 6.2-24.5 10-36.6-1.8-.5-3.7-.7-5.5-.6-.2-1.8.1-3.5 1.1-5 7.6-2.7 13.5-7.6 17.8-14.4 1.7-1.1 3.5-1.7 5.5-1.7v5.6h-.1z" style="opacity:.933;fill-rule:evenodd;clip-rule:evenodd;fill:#fcfbfb;enable-background:new"/><path d="M519.9 278.5c-1.7 2.7-2.5 5.6-2.2 8.9h6.7c1 .8 1.4 1.9 1.1 3.3-3.8.4-7.3 1.5-10.5 3.3-3.8 11.2-6.6 22.7-8.3 34.4 4.3-1 7.3-3.6 8.9-7.8 1.2.1 1.9.9 2.2 2.2-.6 3.1-2.1 5.7-4.4 7.8-2.8 1.9-5.8 3.5-8.9 5-1.8.5-3.7.7-5.5.6-3.2.1-5-1.3-5.5-4.4V324c2.7-10.4 5.7-20.8 8.9-31.1-1.3-1-2.8-1.4-4.4-1.1v-5.5c8-2.6 14.3-7.6 18.9-15 1.4-.5 2.9-.7 4.4-.6-.5 2.7-.9 5.3-1.4 7.8z" style="opacity:.935;fill-rule:evenodd;clip-rule:evenodd;fill:#fbfbfb;enable-background:new"/><path d="M245.8 287.4H238c.3-2.7 1-5.3 2.2-7.8.7 0 1.1-.4 1.1-1.1v-1.1c.7 0 1.1-.4 1.1-1.1 2.2-1.3 4.4-1.3 6.7 0-1.5 3.6-2.7 7.3-3.3 11.1z" style="opacity:.854;fill-rule:evenodd;clip-rule:evenodd;fill:#241916;enable-background:new"/><path d="M524.3 287.4h-6.7c-.2-3.2.5-6.2 2.2-8.9 1.3-2.7 3.5-3.9 6.7-3.3.1 4.2-.6 8.3-2.2 12.2z" style="opacity:.874;fill-rule:evenodd;clip-rule:evenodd;fill:#231814;enable-background:new"/><path d="M168.1 289.6c1.6 4.7 1.1 9.1-1.7 13.3-3.5 4.4-7.7 7.7-12.8 10-1.1-.2-1.8.2-2.2 1.1h-2.2c-8.6.8-11 5.2-7.2 13.3 1.8 1.5 3.8 2.3 6.1 2.2 4.5-1.3 7.8-4.1 10-8.3 1.4-.5 2.9-.7 4.4-.6-.1 4.6-1.9 8.3-5.5 11.1-.7 0-1.1.4-1.1 1.1-5.9 2.9-12.2 4-18.9 3.3-7.7-2.5-11.4-7.9-11.1-16.1 1.4-17.4 10.3-28.8 26.6-34.4 6.1-1.3 11.2 0 15.6 4zm-11.1 7.8c-.3 2.4-1.4 4.3-3.3 5.5.3-2.4 1.4-4.2 3.3-5.5z" style="opacity:.926;fill-rule:evenodd;clip-rule:evenodd;fill:#fcfcfc;enable-background:new"/><path d="M209.2 290.7c-1 3.6-1.4 7.3-1.1 11.1-1.5 1.2-3 1.2-4.4 0-.6-3.3-1.7-6.2-3.3-8.9-2.6-3.7-6-4.3-10-1.7-1.5 3.7-.9 7.3 1.7 10.5 8 6.3 11.7 14.4 11.1 24.4-1.4 3.5-3.5 6.4-6.1 8.9-.7 0-1.1.4-1.1 1.1h-1.1c-.7 0-1.1.4-1.1 1.1-5.4.3-10.5-.4-15.5-2.2-1.8 1.8-4 2.5-6.7 2.2.2-6 .9-11.9 2.2-17.8 1.3-1.4 2.6-1.4 3.9 0 .2 2.5.8 4.7 1.7 6.7.7 3.7 3 5.9 6.7 6.7 3.9.4 6.5-1.3 7.8-5-4.2-7.5-8.8-14.7-13.9-21.6-3.7-9.6-.9-16.4 8.3-20.5 5-.9 9.8-.4 14.4 1.7 2-1.3 4.3-2 6.7-2.2v5.5h-.2z" style="opacity:.906;fill-rule:evenodd;clip-rule:evenodd;fill:#fbfafa;enable-background:new"/><path d="M288 289.6c.6 11.1-4.2 18.8-14.4 23.3-1.1-.2-1.8.2-2.2 1.1h-2.2c-8.6.8-11 5.2-7.2 13.3 1.2 1.7 2.9 2.4 5 2.2 2.3-.6 4.6-1.5 6.7-2.8 2.1-2.5 4.3-4.9 6.7-7.2 2.1 1.3 2.6 3.2 1.7 5.5-1.5 2.4-3.1 4.6-5 6.7-.7 0-1.1.4-1.1 1.1-3.1 1-6.1 2.3-8.9 3.9-2.9.6-5.9.7-8.9.6-6-2.3-10-6.3-12.2-12.2V324c-.1-16.9 7.3-29.3 22.2-37.2 7.1-2.8 13.8-1.9 19.8 2.8zm-11.1 7.8c-.3 2.4-1.4 4.3-3.3 5.5.2-2.4 1.3-4.2 3.3-5.5z" style="opacity:.926;fill-rule:evenodd;clip-rule:evenodd;fill:#fbfbfa;enable-background:new"/><path d="M344.5 290.7c-2.7 4-4 8.4-3.9 13.3 3.3-5 6.8-9.8 10.5-14.4 5-4.5 10.5-5.4 16.6-2.8.8.7 1.2 1.7 1.1 2.8-1.2 10.9.7 11.6 5.5 2.2 4.7-5.2 10.6-7.2 17.8-6.1 1.3 1.1 2.4 2.4 3.3 3.9.2 3.7 0 7.4-.6 11.1-3.4 9-6.2 18.3-8.3 27.7 2 0 3.9-.5 5.5-1.7 1.1-2.4 2.6-4.4 4.4-6.1 1.2 3.9.1 7.2-3.3 10-3.9 3.4-8.4 5.7-13.3 6.7-4.7-.7-6.9-3.5-6.7-8.3 1.4-8.5 3.7-16.9 6.7-25 1.3-2.5 2.4-5.1 3.3-7.8-.4-1.1-1.1-1.9-2.2-2.2-2 .8-3.9 1.9-5.5 3.3-8.7 10.7-14.4 22.9-17.2 36.6-2.4.7-4.8 1.4-7.2 2.2h-6.7c3-10.7 5.9-21.5 8.9-32.2.7 0 1.1-.4 1.1-1.1 2-2.5 2.4-5.1 1.1-7.8-.1-.6-.4-1-1.1-1.1-2 .8-3.9 1.9-5.5 3.3-8.5 11.1-14.1 23.7-16.6 37.7-2.7-.2-5.3.1-7.8 1.1H319c3-13.4 6.3-26.7 10-39.9.1-3.8-1.7-5.3-5.5-4.4-.2-1.5.2-2.8 1.1-3.9 6.9-.4 13.8-1.4 20.5-2.8.4 2.1.2 3.9-.6 5.7zm11.1 4.5c-2.6 3-5.2 5.9-7.8 8.9l1.1-6.7c1.7-1.4 3.5-2.5 5.5-3.3.8.1 1.2.5 1.2 1.1zm25.6-1.1c-1 2.5-2.5 4.7-4.4 6.7-1-.9-1.4-2-1.1-3.3 1.6-1.5 3.5-2.6 5.5-3.4z" style="opacity:.942;fill-rule:evenodd;clip-rule:evenodd;fill:#fcfcfc;enable-background:new"/><path d="M430 289.6c-4.6 11.2-8.3 22.7-11.1 34.4-.3 2.4.6 3.8 2.8 4.4 2.6-.5 4.2-2 5-4.4 8.1-10.9 13.9-23.1 17.2-36.6 4.1-1.1 8.4-1.4 12.8-1.1v4.4c-4.9 12.2-8.6 24.8-11.1 37.7 1.5.2 3 0 4.4-.6 1.6-1.9 3.1-4 4.4-6.1 1.2.1 1.9.9 2.2 2.2-.9 2.6-2.4 4.9-4.4 6.7-3.9 3.4-8.4 5.7-13.3 6.7-2.3-.5-4.1-1.6-5.5-3.3v-5.5c.2-1.9 0-3.8-.6-5.5-2.3 2.8-4.3 5.8-6.1 8.9-4.5 2.8-9.3 4.7-14.4 5.5-5-1-7.3-4.1-6.7-9.4 2.2-10.6 4.7-21.2 7.8-31.6l-1.1-3.3c-2-.6-3.9-1.5-5.5-2.8l2.2-2.2c7.1-.4 14.1-1.3 21.1-2.8l-.1 4.3zm3.3 38.9c-1.9 1.7-4.1 2.8-6.7 3.3 1.8-3.1 3.8-6.1 6.1-8.9.6 1.8.8 3.7.6 5.6z" style="opacity:.937;fill-rule:evenodd;clip-rule:evenodd;fill:#fcfcfc;enable-background:new"/><path d="M487.7 289.6c-4.3 11.7-7.7 23.8-10 36.1.1 1.4.9 2.3 2.2 2.8 2.7-1.6 4.6-3.8 5.5-6.7.7 0 1.1-.4 1.1-1.1h3.3c-.4 4.1-2.3 7.5-5.5 10-3.9 3.3-8.4 5.5-13.3 6.7-4.9-.8-7.1-3.8-6.7-8.9 2-11 4.6-22 7.8-32.7-.7-2.9-2.5-4.2-5.5-3.9-.2-1.5.2-2.8 1.1-3.9 6.4-.3 12.7-1.3 18.9-2.8l2.2 1.1c-.7 1-1.1 2.1-1.1 3.3z" style="opacity:.939;fill-rule:evenodd;clip-rule:evenodd;fill:#fcfcfc;enable-background:new"/><path d="M567.6 289.6c7 19.7 1.5 34.8-16.6 45.5-.7 0-1.1.4-1.1 1.1h-1.1c-1.1-.2-1.8.2-2.2 1.1-4.1-.1-8.2-.4-12.2-1.1-4.8-1.4-8.1-4.4-10-8.9V324c-1.2-17 5.8-29.3 21.1-37.2 7.9-2.8 15.3-1.9 22.1 2.8zm-10 4.5c.3 13.1-3.3 25.3-10.5 36.6-1.2.9-2.5 1.6-3.9 2.2.4-12.6 3.5-24.5 9.4-35.5 1.4-1.5 3.1-2.7 5-3.3z" style="opacity:.932;fill-rule:evenodd;clip-rule:evenodd;fill:#fbfbfb;enable-background:new"/><path class="st67" d="M654.1 288.5c-.1 4.1-.3 8.1-.6 12.2 2.4-2.6 4.1-5.5 5-8.9 5.6-6.1 12.2-7.8 20-5 1 .8 1.7 1.7 2.2 2.8-.8 11.2-3.6 21.9-8.3 32.2-.5 2.2-.7 4.4-.6 6.7 1.1.2 2.3 0 3.3-.6 1.7-2.5 3.6-4.9 5.5-7.2 1.1 0 1.8.5 2.2 1.7-.5 3.3-2 6.1-4.4 8.3-4.2 2.8-8.7 5.1-13.3 6.7-5.6-.6-7.8-3.8-6.7-9.4 1-8.1 2.9-16.1 5.5-23.9.7 0 1.1-.4 1.1-1.1 1-1.9 1.7-4 2.2-6.1 0-1.2-.4-2.1-1.1-2.8-2.4.3-4.3 1.4-5.5 3.3-1.1-.1-2 .3-2.8 1.1-7 11-12.2 22.9-15.5 35.5-2.1.6-4.1 1.4-6.1 2.2h-6.7c2.5-10.8 5.5-21.6 8.9-32.2.7 0 1.1-.4 1.1-1.1 1-2.8 1-5.4 0-7.8.1-.5-.1-.9-.6-1.1-2.4 1.5-4.5 3.3-6.1 5.5-3.2 2.3-5.6 5.2-7.2 8.9-3.6 8.3-6.6 16.8-8.9 25.5-2.4.7-4.8 1.4-7.2 2.2-2.3.3-4.6 0-6.7-1.1 4.4-13.9 8.1-27.9 11.1-42.2-3.4.3-5.3-1.1-5.5-4.4 7.3-1.3 14.8-1.9 22.2-1.7-.9 1.1-1.3 2.4-1.1 3.9-3.1 4.3-4.8 9.1-5 14.4 3.7-5.3 7.6-10.5 11.7-15.5 5.9-5.1 11.8-5.5 17.9-1zm-14.4 6.7c-2.2 3.6-4.8 7-7.8 10 .1-1.9.5-3.8 1.1-5.5 1.6-2.2 3.7-4.1 6.1-5.5.5.1.7.5.6 1zm26.6-1.1c-1.8 3.1-3.8 6.1-6.1 8.9-.7-2-.5-3.8.6-5.5 1.3-2.1 3.1-3.2 5.5-3.4z"/><path d="M730.7 289.6c1.6 4.1 1.4 8.2-.6 12.2-3.4 4-7.3 7.3-11.7 10-.7 0-1.1.4-1.1 1.1h-1.1c-.7 0-1.1.4-1.1 1.1h-3.3c-7 1-9.4 5.1-7.2 12.2 1.4 2.3 3.4 3.4 6.1 3.3 4.4-1.6 8.1-4.4 11.1-8.3 1.4-.5 2.9-.7 4.4-.6 0 2-.5 3.9-1.7 5.5-1.9 1.7-3.5 3.5-5 5.5-.7 0-1.1.4-1.1 1.1-5.9 2.9-12.2 4-18.9 3.3-4.7-1.2-7.9-4.2-9.4-8.9-2.2-18.7 5-32.2 21.6-40.5 4.4-1.5 8.8-1.8 13.3-1.1 2.5 1 4.3 2.3 5.7 4.1zm-10 6.7c-.7 3.7-2.6 6.7-5.5 8.9 1-3.6 2.8-6.6 5.5-8.9z" style="opacity:.93;fill-rule:evenodd;clip-rule:evenodd;fill:#fbfbfb;enable-background:new"/><path class="st67" d="M798.4 264.1c-4.7 12.6-8.2 25.6-10.5 38.8 3.7-4.3 7.2-8.7 10.5-13.3 4.5-3.7 9.7-5 15.5-3.9 1.6.4 2.7 1.3 3.3 2.8.2 3.7 0 7.4-.6 11.1-2.8 9.6-5.6 19.2-8.3 28.9 1.1.2 2.3 0 3.3-.6 2.4-2.2 4.6-4.6 6.7-7.2 1.1 0 1.8.5 2.2 1.7-1.2 3.2-3.1 6-5.5 8.3-4.2 2.8-8.7 5.1-13.3 6.7-4.9-.8-7.1-3.8-6.7-8.9 1.3-8.8 3.5-17.3 6.7-25.5 1.1-2.2 2.2-4.4 3.3-6.7-.3-1.3-1-2.1-2.2-2.2-3.6.6-6.1 2.5-7.8 5.5-3.4 3.2-6.1 6.9-8.3 11.1-2.9 7.7-5.7 15.5-8.3 23.3-2.2.7-4.5 1.4-6.7 2.2H765v-3.3c.7 0 1.1-.4 1.1-1.1.5-2.6.9-5.2 1.1-7.8 6.4-18.4 11.2-37.4 14.4-56.6-4.6.7-6.1-.9-4.4-5 7.1-.7 14.1-1.6 21.1-2.8v4.5h.1zm4.4 30c-2.2 3.6-4.8 7-7.8 10v-4.4c1.7-3.2 4.3-5 7.8-5.6z"/><path d="M870.5 290.7c6.4 19 .9 33.8-16.6 44.4-.7 0-1.1.4-1.1 1.1h-3.3c-4 1.4-8.1 1.4-12.2 0-5.6-1.9-9.3-5.6-11.1-11.1V324c-.6-15.7 5.7-27.8 18.9-36.1 9.2-4.4 17.7-3.5 25.4 2.8zm-10 3.4c-.3 11.4-3 22.5-8.3 33.3-1.9 2-3.9 3.9-6.1 5.5-.6-12.1 2.2-23.6 8.3-34.4 1.6-2.2 3.7-3.7 6.1-4.4z" style="opacity:.932;fill-rule:evenodd;clip-rule:evenodd;fill:#fafafa;enable-background:new"/><path d="M904.9 289.6c-.7.1-1.2.5-1.7 1.1-1.5 4.3-2.6 8.8-3.3 13.3 2.8-4.9 5.6-9.7 8.3-14.4 4.6-5.2 9.4-5.6 14.4-1.1 1.5 6.3-.8 10.4-6.7 12.2h-1.1l-3.3-2.2c-.4-.9-1.1-1.3-2.2-1.1-1.7 0-3 .8-3.9 2.2-6.5 10.7-11.1 22.2-13.9 34.4-2.2.7-4.5 1.4-6.7 2.2h-6.7c3.3-13.3 6.7-26.6 10-39.9.1-3.8-1.7-5.3-5.5-4.4-.2-1.5.2-2.8 1.1-3.9 7.1-.4 14.1-1.3 21.1-2.8v4.4h.1z" style="opacity:.935;fill-rule:evenodd;clip-rule:evenodd;fill:#fcfbfb;enable-background:new"/><path d="M654.1 288.5c1.9.6 3.4 1.7 4.4 3.3-.9 3.3-2.6 6.3-5 8.9.3-4 .5-8.1.6-12.2z" style="opacity:.903;fill-rule:evenodd;clip-rule:evenodd;fill:#241916;enable-background:new"/><path d="M817.3 288.5c5.2 1.2 7.4 4.5 6.7 10-1.4 7.5-3.2 14.9-5.5 22.2-2 2.6-4.2 5-6.7 7.2-1 .5-2.2.7-3.3.6 2.7-9.6 5.5-19.3 8.3-28.9.5-3.7.6-7.4.5-11.1z" style="opacity:.933;fill-rule:evenodd;clip-rule:evenodd;fill:#241915;enable-background:new"/><path d="M922.7 288.5c6.3 2.6 7.9 7 5 13.3-4.4 4.5-8.2 4.2-11.7-1.1 5.9-1.8 8.1-5.9 6.7-12.2z" style="opacity:.829;fill-rule:evenodd;clip-rule:evenodd;fill:#1e130e;enable-background:new"/><path d="M155.9 289.6c2.6 2.1 3 4.6 1.1 7.8-1.9 1.3-3.1 3.1-3.3 5.5-.9.4-1.3 1.1-1.1 2.2-2 3.4-4.9 5.7-8.9 6.7-.2-6.4 1.7-12.3 5.5-17.8 2-2 4.3-3.4 6.7-4.4z" style="opacity:.903;fill-rule:evenodd;clip-rule:evenodd;fill:#221714;enable-background:new"/><path d="M168.1 289.6c6.3 2.7 8.4 7.5 6.1 14.4-1.6 4.2-4.4 7.3-8.3 9.4-5.7 2.9-11.6 5.4-17.8 7.2-1.4 3-1.4 6 0 8.9-2.3 0-4.3-.7-6.1-2.2-3.8-8.1-1.3-12.5 7.2-13.3.7 1.5 1.5 1.5 2.2 0 1.1.2 1.8-.2 2.2-1.1 5-2.2 9.3-5.6 12.8-10 2.8-4.2 3.3-8.6 1.7-13.3z" style="opacity:.885;fill-rule:evenodd;clip-rule:evenodd;fill:#221713;enable-background:new"/><path d="M200.3 292.9c-4.2 1.5-5.5 4.5-3.9 8.9 4.5 5.6 8.6 11.5 12.2 17.8 3.6 12.8-1.2 20.2-14.4 22.2-5.1-2.6-10.1-2.6-15 0-1.1-2-1.5-4.4-1.1-6.7 5 1.8 10.2 2.5 15.5 2.2.7 0 1.1-.4 1.1-1.1h1.1c.7 0 1.1-.4 1.1-1.1 2.6-2.5 4.7-5.4 6.1-8.9.6-10-3.1-18.1-11.1-24.4-2.6-3.3-3.1-6.8-1.7-10.5 4.1-2.7 7.5-2.1 10.1 1.6z" style="opacity:.858;fill-rule:evenodd;clip-rule:evenodd;fill:#201410;enable-background:new"/><path d="M208.1 301.8c-.3-3.8.1-7.5 1.1-11.1 2.1-.7 4.4-1.1 6.7-1.1-.6 5.2-1.2 10.3-1.7 15.5-1.2 1.1-2.5 1.3-3.9.6-.6-1.4-1.4-2.7-2.2-3.9z" style="opacity:.83;fill-rule:evenodd;clip-rule:evenodd;fill:#1e120e;enable-background:new"/><path d="M275.7 289.6c1.1-.1 2 .3 2.8 1.1.4 1.9.2 3.7-.6 5.5-.7 0-1.1.4-1.1 1.1-1.9 1.3-3.1 3.1-3.3 5.5-.9.4-1.3 1.1-1.1 2.2-2 3.3-5 5.5-8.9 6.7-.4-6.9 1.7-13.2 6.1-18.9 2-1 4.1-2.1 6.1-3.2z" style="opacity:.909;fill-rule:evenodd;clip-rule:evenodd;fill:#241915;enable-background:new"/><path d="M288 289.6c6.2 2.3 8.3 6.7 6.1 13.3-5.7 10-14.4 15.7-26.1 17.2-1 3-1.4 6.2-1.1 9.4-2.1.2-3.8-.5-5-2.2-3.8-8.1-1.4-12.6 7.2-13.3.7 1.5 1.5 1.5 2.2 0 1.1.2 1.8-.2 2.2-1.1 10.2-4.4 15-12.2 14.5-23.3z" style="opacity:.881;fill-rule:evenodd;clip-rule:evenodd;fill:#201511;enable-background:new"/><path d="M351.2 289.6c-3.7 4.7-7.2 9.5-10.5 14.4-.2-4.9 1.1-9.3 3.9-13.3 2-.9 4.3-1.3 6.6-1.1z" style="opacity:.927;fill-rule:evenodd;clip-rule:evenodd;fill:#271c18;enable-background:new"/><path d="M369 289.6c2.4-.4 4.3.3 5.5 2.2-4.9 9.4-6.7 8.7-5.5-2.2z" style="opacity:.872;fill-rule:evenodd;clip-rule:evenodd;fill:#2a1f1b;enable-background:new"/><path d="M395.6 289.6c5.4.4 7.6 3.4 6.7 8.9-.9 7.6-2.8 15-5.5 22.2-1.9 1.7-3.3 3.7-4.4 6.1-1.7 1.1-3.5 1.7-5.5 1.7 2.1-9.4 4.9-18.7 8.3-27.7.4-3.8.6-7.5.4-11.2z" style="opacity:.93;fill-rule:evenodd;clip-rule:evenodd;fill:#251a16;enable-background:new"/><path d="M430 289.6h6.7c-3.1 11.5-6.4 23-10 34.4-.8 2.4-2.4 3.9-5 4.4-2.2-.6-3.1-2.1-2.8-4.4 2.8-11.7 6.5-23.2 11.1-34.4z" style="opacity:.916;fill-rule:evenodd;clip-rule:evenodd;fill:#231814;enable-background:new"/><path d="M487.7 289.6h6.7l-7.8 31.1c-.7 0-1.1.4-1.1 1.1-1 2.9-2.8 5.1-5.5 6.7-1.4-.4-2.1-1.4-2.2-2.8 2.2-12.3 5.6-24.4 9.9-36.1z" style="opacity:.928;fill-rule:evenodd;clip-rule:evenodd;fill:#221713;enable-background:new"/><path d="M553.2 289.6h4.4v4.4c-1.9.7-3.6 1.8-5 3.3-5.9 11.1-9.1 22.9-9.4 35.5-2.5 1.4-4.5.7-6.1-2.2-.1-12.4 2.5-24.2 7.8-35.5 2.3-2.5 5.1-4.4 8.3-5.5z" style="opacity:.917;fill-rule:evenodd;clip-rule:evenodd;fill:#221714;enable-background:new"/><path d="M636.4 289.6c-4.1 5-8 10.2-11.7 15.5.2-5.3 1.9-10.1 5-14.4 2.2-.7 4.4-1.1 6.7-1.1z" style="opacity:.932;fill-rule:evenodd;clip-rule:evenodd;fill:#332824;enable-background:new"/><path d="M680.8 289.6c4.7.6 6.9 3.4 6.7 8.3-1.4 7.8-3.7 15.4-6.7 22.7-2 2.3-3.8 4.7-5.5 7.2-1 .5-2.2.7-3.3.6-.2-2.2 0-4.5.6-6.7 4.6-10.2 7.3-20.9 8.2-32.1z" style="opacity:.926;fill-rule:evenodd;clip-rule:evenodd;fill:#211612;enable-background:new"/><path d="M719.6 289.6c2.5 1.8 2.8 4 1.1 6.7-2.7 2.4-4.6 5.3-5.5 8.9-1.9 3.2-4.7 5.5-8.3 6.7-.5-8.7 2.7-15.7 9.4-21.1 1.4.2 2.5-.2 3.3-1.2z" style="opacity:.928;fill-rule:evenodd;clip-rule:evenodd;fill:#211613;enable-background:new"/><path class="st40" d="M730.7 289.6c6.7 2 9.1 6.4 7.2 13.3-5.7 10-14.4 15.7-26.1 17.2-2.4 2.9-2.8 6.1-1.1 9.4-2.7.1-4.7-1-6.1-3.3-2.2-7.1.2-11.2 7.2-12.2.7 1.5 1.5 1.5 2.2 0h1.1c.7 0 1.1-.4 1.1-1.1h1.1c.7 0 1.1-.4 1.1-1.1 4.4-2.7 8.2-6 11.7-10 2-4 2.2-8.1.6-12.2z"/><path d="M855 289.6c3.8-.8 5.7.7 5.5 4.4-2.5.8-4.5 2.3-6.1 4.4-6.1 10.8-8.9 22.3-8.3 34.4-2.6 1.4-4.6.7-6.1-2.2-.8-11.1 1-21.9 5.5-32.2 2.4-3.9 5.5-6.9 9.5-8.8z" style="opacity:.903;fill-rule:evenodd;clip-rule:evenodd;fill:#201511;enable-background:new"/><path d="M904.9 289.6h3.3c-2.8 4.8-5.6 9.6-8.3 14.4.8-4.5 1.9-9 3.3-13.3.5-.6 1-1 1.7-1.1z" style="opacity:.836;fill-rule:evenodd;clip-rule:evenodd;fill:#362b27;enable-background:new"/><path d="M245.8 290.7h6.7v4.4c-3.4-.4-6.6.4-9.4 2.2-2.6 7.6-4.6 15.4-6.1 23.3-1.6 4.2-4.5 6.8-8.9 7.8 1.9-12.1 4.9-24 8.9-35.5 2.9-.7 5.8-1.4 8.8-2.2z" style="opacity:.928;fill-rule:evenodd;clip-rule:evenodd;fill:#201511;enable-background:new"/><path d="M456.6 290.7c2.3-.3 4.6 0 6.7 1.1-3 10-5.9 20-8.9 30-1.4 2.1-2.8 4.2-4.4 6.1-1.4.5-2.9.7-4.4.6 2.4-12.9 6.1-25.6 11-37.8z" style="opacity:.923;fill-rule:evenodd;clip-rule:evenodd;fill:#231815;enable-background:new"/><path d="M525.4 290.7h5.5c.5 5.2-1.5 6.6-6.1 4.4l-3.3 2.2c-2.6 7.6-4.6 15.4-6.1 23.3-1.6 4.2-4.5 6.8-8.9 7.8 1.7-11.7 4.5-23.2 8.3-34.4 3.3-1.8 6.8-2.9 10.6-3.3z" style="opacity:.914;fill-rule:evenodd;clip-rule:evenodd;fill:#211612;enable-background:new"/><path d="M567.6 289.6c7.2 3.4 10.5 9.2 10 17.2-.9 15.9-8.7 27-23.3 33.3-4.4.7-8.9.7-13.3 0-2.7-.7-4.9-2-6.7-3.9 4 .7 8.1 1.1 12.2 1.1 1.1.2 1.8-.2 2.2-1.1h1.1c.7 0 1.1-.4 1.1-1.1 18.1-10.6 23.7-25.8 16.7-45.5z" style="opacity:.897;fill-rule:evenodd;clip-rule:evenodd;fill:#211612;enable-background:new"/><path d="M870.5 290.7c7.2 2.5 10.5 7.7 10 15.5-2 23.3-14.6 34.6-37.7 33.8-2.3-.8-4.2-2.1-5.5-3.9 4.1 1.4 8.2 1.4 12.2 0 .7 1.5 1.5 1.5 2.2 0h1.1c.7 0 1.1-.4 1.1-1.1 17.5-10.5 23.1-25.3 16.6-44.3z" style="opacity:.885;fill-rule:evenodd;clip-rule:evenodd;fill:#201511;enable-background:new"/><path d="M381.2 294.1c1.1.3 1.8 1.1 2.2 2.2-.9 2.7-2 5.3-3.3 7.8-3.6 3.8-6.4 8.2-8.3 13.3-2.3 7.1-4.7 14.1-7.2 21.1-4.3 1.1-8.8 1.5-13.3 1.1v-3.3c2.4-.8 4.8-1.6 7.2-2.2 2.8-13.7 8.5-25.9 17.2-36.6-.2 1.3.1 2.4 1.1 3.3 1.9-2 3.4-4.3 4.4-6.7z" style="opacity:.891;fill-rule:evenodd;clip-rule:evenodd;fill:#211613;enable-background:new"/><path class="st46" d="M802.8 294.1c1.2.1 1.9.9 2.2 2.2-1.1 2.2-2.2 4.4-3.3 6.7-8.5 10.3-14 22.2-16.6 35.5-4.3 1.1-8.8 1.5-13.3 1.1v-3.3c2.2-.8 4.4-1.5 6.7-2.2 2.6-7.8 5.4-15.6 8.3-23.3 2.2-4.2 5-7.9 8.3-11.1v4.4c3-3.1 5.6-6.4 7.7-10z"/><path d="M639.7 295.2c1 2.4 1 5 0 7.8-.7 0-1.1.4-1.1 1.1-3.6 3.8-6.4 8.2-8.3 13.3-2.6 7-5 14-7.2 21.1-4.3 1.1-8.8 1.5-13.3 1.1v-3.3c2.4-.8 4.8-1.6 7.2-2.2 2.3-8.7 5.2-17.3 8.9-25.5 1.6-3.6 4-6.6 7.2-8.9-.6 1.8-1 3.7-1.1 5.5 2.9-3 5.5-6.4 7.7-10z" style="opacity:.879;fill-rule:evenodd;clip-rule:evenodd;fill:#221713;enable-background:new"/><path d="M666.3 294.1c.7.7 1.1 1.6 1.1 2.8-.5 2.1-1.2 4.2-2.2 6.1-.7 0-1.1.4-1.1 1.1-7.3 10.3-12.3 21.7-15 34.4-4.6 1.4-9.2 1.4-13.9 0 .4-.8.8-1.5 1.1-2.2 2-.8 4-1.6 6.1-2.2 3.3-12.6 8.6-24.5 15.5-35.5.7-.8 1.7-1.2 2.8-1.1-1.1 1.7-1.3 3.6-.6 5.5 2.4-2.9 4.4-5.8 6.2-8.9z" style="opacity:.886;fill-rule:evenodd;clip-rule:evenodd;fill:#211612;enable-background:new"/><path d="M355.6 295.2c1.3 2.6.9 5.2-1.1 7.8-.7 0-1.1.4-1.1 1.1-6.7 10.6-11.7 22-15 34.4-4.5 1.1-9.1 1.4-13.9 1.1v-3.3c2.5-1 5-1.3 7.8-1.1 2.6-14 8.1-26.6 16.6-37.7l-1.1 6.7c2.7-3.1 5.3-6.1 7.8-9z" style="opacity:.853;fill-rule:evenodd;clip-rule:evenodd;fill:#221713;enable-background:new"/><path d="M909.4 297.4c-1 1.4-1.2 2.9-.6 4.4.4-1.6 1.3-2.7 2.8-3.3l3.3 2.2c-3.3 3.7-6.1 7.8-8.3 12.2-2.9 8.5-5.7 17-8.3 25.5-4.8 1.5-9.6 1.5-14.4 0 .4-.8.8-1.5 1.1-2.2 2.2-.8 4.4-1.5 6.7-2.2 2.8-12.2 7.4-23.7 13.9-34.4.8-1.5 2.1-2.2 3.8-2.2z" style="opacity:.861;fill-rule:evenodd;clip-rule:evenodd;fill:#211612;enable-background:new"/><path d="M185.9 332.9c-3.7-.7-5.9-3-6.7-6.7-.5-3 .6-4.3 3.3-3.9 1.6 3.4 2.7 7 3.4 10.6z" style="opacity:.802;fill-rule:evenodd;clip-rule:evenodd;fill:#211612;enable-background:new"/><path d="M137 336.2c6.7.7 13-.4 18.9-3.3.7 0 1.1-.4 1.1-1.1 3.4-1.4 6-3.8 7.8-7.2 2.3-.9 3.8-.2 4.4 2.2-7.7 14.3-18.4 17.5-32.2 9.4z" style="opacity:.822;fill-rule:evenodd;clip-rule:evenodd;fill:#221714;enable-background:new"/><path d="M245.8 324v1.1c-3.2 10.5-10.3 15.5-21.1 15-2-.7-3.5-2-4.4-3.9 3 .1 6.1-.5 8.9-1.7 1.4-2 3.3-3.3 5.5-3.9.4 1.1 1.2 1.3 2.2.6 2.1-2 4-4.2 5.5-6.7 1.1-.5 2.2-.7 3.4-.5z" style="opacity:.799;fill-rule:evenodd;clip-rule:evenodd;fill:#1f1410;enable-background:new"/><path d="M258 337.3c3 .2 6 0 8.9-.6 2.8-1.6 5.8-2.9 8.9-3.9.7 0 1.1-.4 1.1-1.1 3.4-1.4 6-3.8 7.8-7.2 2.3-.9 3.8-.2 4.4 2.2-7.3 13.6-17.7 17.1-31.1 10.6z" style="opacity:.832;fill-rule:evenodd;clip-rule:evenodd;fill:#1e120d;enable-background:new"/><path d="M493.2 324v7.8c-3.2 3.4-7 6.2-11.1 8.3-4.4 1.3-8.1.3-11.1-2.8 4.9-1.2 9.4-3.4 13.3-6.7.9 1.3 2 1.3 3.3 0 2-2.1 3.8-4.4 5.6-6.6z" style="opacity:.816;fill-rule:evenodd;clip-rule:evenodd;fill:#211612;enable-background:new"/><path d="M524.3 324v3.3c-4.3 8.8-11.4 13.1-21.1 12.8-2-.7-3.5-2-4.4-3.9 1.9.2 3.8 0 5.5-.6 3.1-1.5 6-3.1 8.9-5 .4 1.1 1.2 1.3 2.2.6 2.2-1.9 4.1-4.1 5.5-6.7 1.1-.5 2.3-.7 3.4-.5z" style="opacity:.798;fill-rule:evenodd;clip-rule:evenodd;fill:#1f1410;enable-background:new"/><path d="M699.6 336.2c6.7.7 13-.4 18.9-3.3.7 0 1.1-.4 1.1-1.1 3.4-1.4 6-3.8 7.8-7.2 1.4-.5 2.9-.7 4.4-.6-1.2 6.6-4.9 11.6-11.1 15-5.1 1.6-10.3 2-15.5 1.1-2.3-.8-4.2-2.1-5.6-3.9z" style="opacity:.822;fill-rule:evenodd;clip-rule:evenodd;fill:#231814;enable-background:new"/><path d="M767.3 324c-.2 2.6-.6 5.2-1.1 7.8-.7 0-1.1.4-1.1 1.1-3.1 3.2-6.8 5.6-11.1 7.2-2.5.7-5.2.7-7.8 0-1.4-.5-2.1-1.4-2.2-2.8 4.7-1.6 9.2-3.9 13.3-6.7.4 1.1 1.2 1.3 2.2.6 2.1-3.1 4.7-5.5 7.8-7.2z" style="opacity:.812;fill-rule:evenodd;clip-rule:evenodd;fill:#201511;enable-background:new"/><path d="M826.1 324v1.1c-3.5 10.8-10.9 15.8-22.2 15-1-.8-1.7-1.7-2.2-2.8 4.7-1.6 9.1-3.8 13.3-6.7.4 1.1 1.2 1.3 2.2.6 2.6-3.1 5.5-5.5 8.9-7.2z" style="opacity:.808;fill-rule:evenodd;clip-rule:evenodd;fill:#201511;enable-background:new"/><path d="M380.1 337.3c5-1 9.4-3.2 13.3-6.7 3.4 1.1 5.6-.4 6.7-4.4 1.3-1 2.8-1.4 4.4-1.1-2.4 8.8-8.1 14-17.2 15.5-3.1.3-5.5-.8-7.2-3.3z" style="opacity:.81;fill-rule:evenodd;clip-rule:evenodd;fill:#201511;enable-background:new"/><path d="M438.9 337.3c5-1 9.4-3.2 13.3-6.7.8 1.2 1.9 1.4 3.3.6 1.9-1.5 3.4-3.4 4.4-5.5 1-.5 2.2-.7 3.3-.6-2.1 9.1-7.8 14.3-17.2 15.5-3 .3-5.4-.8-7.1-3.3z" style="opacity:.808;fill-rule:evenodd;clip-rule:evenodd;fill:#201410;enable-background:new"/><path d="M665.2 337.3c4.7-1.6 9.1-3.8 13.3-6.7.4 1.1 1.2 1.3 2.2.6 1.5-3.5 4.1-5.6 7.8-6.1-2 9.2-7.7 14.3-17.2 15.5-3 .5-5-.6-6.1-3.3z" style="opacity:.803;fill-rule:evenodd;clip-rule:evenodd;fill:#1f140f;enable-background:new"/><path d="M433.3 328.5v5.5c-4.7 5.5-10.6 7.5-17.8 6.1-1.6-.4-2.7-1.3-3.3-2.8 5.1-.9 9.9-2.7 14.4-5.5 2.6-.5 4.8-1.7 6.7-3.3z" style="opacity:.837;fill-rule:evenodd;clip-rule:evenodd;fill:#201511;enable-background:new"/></svg>